HIERARCHY
ROOT Hips
{
	OFFSET 0.000000 0.000000 0.000000
	CHANNELS 6 Xposition Yposition Zposition Xrotation Yrotation Zrotation
	JOINT LeftUpLeg_virtual
	{
		OFFSET 0.000000 0.000000 0.000000
		CHANNELS 3 Xrotation Yrotation Zrotation
		JOINT LeftUpLeg
		{
			OFFSET 11.394100 -6.187798 -0.413800
			CHANNELS 3 Xrotation Yrotation Zrotation
			JOINT LeftLeg
			{
				OFFSET 0.430247 -32.302673 3.732800
				CHANNELS 3 Xrotation Yrotation Zrotation
				JOINT LeftFoot
				{
					OFFSET -0.430247 -48.264931 -6.423300
					CHANNELS 3 Xrotation Yrotation Zrotation
					JOINT LeftToeBase
					{
						OFFSET 4.230900 -16.068199 23.438400
						CHANNELS 3 Xrotation Yrotation Zrotation
						JOINT LeftToe_End
						{
							OFFSET 4.510700 0.695400 19.974600
							CHANNELS 3 Xrotation Yrotation Zrotation
							End Site
							{
								OFFSET 0 0 0
							}
						}
					}
				}
			}
		}
	}
	JOINT RightUpLeg_virtual
	{
		OFFSET 0.000000 0.000000 0.000000
		CHANNELS 3 Xrotation Yrotation Zrotation
		JOINT RightUpLeg
		{
			OFFSET -11.333700 -6.187798 -0.413800
			CHANNELS 3 Xrotation Yrotation Zrotation
			JOINT RightLeg
			{
				OFFSET -0.430392 -32.302628 3.733000
				CHANNELS 3 Xrotation Yrotation Zrotation
				JOINT RightFoot
				{
					OFFSET 0.430392 -48.264973 -6.423500
					CHANNELS 3 Xrotation Yrotation Zrotation
					JOINT RightToeBase
					{
						OFFSET -4.230900 -16.068199 23.438400
						CHANNELS 3 Xrotation Yrotation Zrotation
						JOINT RightToe_End
						{
							OFFSET -4.510700 0.695400 19.974600
							CHANNELS 3 Xrotation Yrotation Zrotation
							End Site
							{
								OFFSET 0 0 0
							}
						}
					}
				}
			}
		}
	}
	JOINT Spine_virtual
	{
		OFFSET 0.000000 0.000000 0.000000
		CHANNELS 3 Xrotation Yrotation Zrotation
		JOINT Spine
		{
			OFFSET -0.002400 12.777504 0.315300
			CHANNELS 3 Xrotation Yrotation Zrotation
			JOINT Spine1
			{
				OFFSET -0.002067 5.816869 0.032633
				CHANNELS 3 Xrotation Yrotation Zrotation
				JOINT Spine1_split
				{
					OFFSET -0.002067 5.816869 0.032633
					CHANNELS 3 Xrotation Yrotation Zrotation
					JOINT Spine2
					{
						OFFSET -0.002067 5.816869 0.032633
						CHANNELS 3 Xrotation Yrotation Zrotation
						JOINT Neck_virtual
						{
							OFFSET 0.000000 0.000000 0.000000
							CHANNELS 3 Xrotation Yrotation Zrotation
							JOINT Neck
							{
								OFFSET -0.003700 21.199493 -0.826900
								CHANNELS 3 Xrotation Yrotation Zrotation
								JOINT Head
								{
									OFFSET 0.000000 20.442200 4.834800
									CHANNELS 3 Xrotation Yrotation Zrotation
									JOINT HeadTop_End
									{
										OFFSET 0.000000 34.668396 4.968400
										CHANNELS 3 Xrotation Yrotation Zrotation
										End Site
										{
											OFFSET 0 0 0
										}
									}
								}
							}
						}
						JOINT LeftShoulder_virtual
						{
							OFFSET 0.000000 0.000000 0.000000
							CHANNELS 3 Xrotation Yrotation Zrotation
							JOINT LeftShoulder
							{
								OFFSET 3.288150 8.794197 -1.372250
								CHANNELS 3 Xrotation Yrotation Zrotation
								JOINT LeftShoulder_split
								{
									OFFSET 3.288150 8.794197 -1.372250
									CHANNELS 3 Xrotation Yrotation Zrotation
									JOINT LeftArm
									{
										OFFSET 11.953299 -2.279007 -0.146200
										CHANNELS 3 Xrotation Yrotation Zrotation
										JOINT LeftForeArm
										{
											OFFSET 18.448900 0.000000 0.000000
											CHANNELS 3 Xrotation Yrotation Zrotation
											JOINT LeftHand
											{
												OFFSET 29.527798 0.000000 0.000000
												CHANNELS 3 Xrotation Yrotation Zrotation
												End Site
												{
													OFFSET 0 0 0
												}
											}
										}
									}
								}
							}
						}
						JOINT RightShoulder_virtual
						{
							OFFSET 0.000000 0.000000 0.000000
							CHANNELS 3 Xrotation Yrotation Zrotation
							JOINT RightShoulder
							{
								OFFSET -3.249400 8.794197 -1.372250
								CHANNELS 3 Xrotation Yrotation Zrotation
								JOINT RightShoulder_split
								{
									OFFSET -3.249400 8.794197 -1.372250
									CHANNELS 3 Xrotation Yrotation Zrotation
									JOINT RightArm
									{
										OFFSET -11.953299 -2.279007 -0.146200
										CHANNELS 3 Xrotation Yrotation Zrotation
										JOINT RightForeArm
										{
											OFFSET -18.448900 0.000000 0.000000
											CHANNELS 3 Xrotation Yrotation Zrotation
											JOINT RightHand
											{
												OFFSET -29.527802 0.000000 0.000000
												CHANNELS 3 Xrotation Yrotation Zrotation
												End Site
												{
													OFFSET 0 0 0
												}
											}
										}
									}
								}
							}
						}
					}
				}
			}
		}
	}
}
MOTION
Frames: 10
Frame Time: 0.03333333
-1.277160 84.492477 0.238380 0.000000 0.000000 0.000000 -19.860785 1.526092 -0.425242 -17.204429 -0.301198 13.868075 55.708105 2.508154 0.249520 -24.816516 0.394529 -11.938339 -0.987287 -0.779417 -0.776352 0.000000 0.000000 0.000000 -19.387494 1.739854 -0.355825 -14.392650 -8.111066 -15.734123 53.710729 1.300213 -1.581690 -27.134549 -2.301226 12.055239 3.602262 -0.235748 -1.649197 0.000000 0.000000 0.000000 -20.012073 3.580517 -0.751309 19.150059 -1.485610 3.178763 9.491898 -0.268233 1.393016 1.506932 4.301910 -1.235706 0.000000 0.000000 0.000000 8.211482 -0.707424 1.285033 -15.834388 0.827700 -1.979019 -18.471873 -2.199935 1.437592 0.000000 0.000000 0.000000 10.352785 -1.101072 1.474349 1.665127 -7.595856 -6.362645 -8.502403 -1.013853 -5.975644 -7.037751 -17.345342 -53.543103 64.355388 -58.385707 56.704090 0.000000 0.000000 0.000000 8.888092 -0.585482 1.151120 10.556173 -0.630610 14.024012 -1.892699 1.575347 -1.990628 -24.307960 10.941781 63.211031 83.177176 66.700663 -79.414753 0.000000 0.000000 0.000000 
-1.194656 84.400131 0.247417 0.000000 0.000000 0.000000 -19.718749 2.169912 -0.324635 -17.320001 -0.290503 13.701600 55.795231 2.552555 0.453954 -24.691641 0.454264 -12.101291 -1.348205 -0.781035 -0.721094 0.000000 0.000000 0.000000 -19.224418 2.411586 -0.320024 -14.371471 -7.798776 -15.820690 53.450902 1.457089 -1.682436 -27.167260 -2.449884 12.081334 3.157131 -0.144570 -1.714671 0.000000 0.000000 0.000000 -19.666377 3.585042 -0.685061 19.008502 -1.482952 3.099708 9.433734 -0.403192 1.242603 1.521179 3.421360 -1.358180 0.000000 0.000000 0.000000 8.225891 -0.696057 1.147180 -15.047375 0.858294 -2.411728 -18.758749 -1.646938 1.221636 0.000000 0.000000 0.000000 10.207162 -1.139671 1.532780 1.550534 -7.977183 -6.450348 -7.429455 -0.218417 -5.321979 -8.841608 -15.875723 -53.401520 61.963900 -58.674481 54.032124 0.000000 0.000000 0.000000 9.071244 -0.660212 1.161462 10.749631 -0.769427 15.008157 -3.340064 1.346493 -1.093313 -24.157986 8.995644 59.999687 81.057946 66.412497 -76.078991 0.000000 0.000000 0.000000 
-1.081908 84.325874 0.272861 0.000000 0.000000 0.000000 -19.141159 3.565543 -0.238313 -17.811139 -0.960619 13.420179 56.149192 2.592532 0.734971 -24.543757 0.235420 -11.884025 -1.735340 -0.781244 -0.604333 0.000000 0.000000 0.000000 -18.626245 4.179571 -0.205455 -14.110893 -8.111362 -15.879196 53.047398 1.402682 -1.687666 -27.219009 -2.894027 11.860488 2.938110 -0.158652 -1.402346 0.000000 0.000000 0.000000 -19.069620 4.483659 -0.481801 18.792434 -1.521198 2.970278 9.125140 -0.639814 1.069166 1.170866 2.429954 -0.539060 0.000000 0.000000 0.000000 8.051656 -0.825797 1.068913 -13.562796 0.699056 -2.847083 -18.685272 -1.087217 0.427396 0.000000 0.000000 0.000000 9.786756 -1.235011 1.610276 1.335259 -9.158473 -6.735558 -6.660745 0.261012 -4.593321 -10.246791 -14.537805 -51.755687 58.013912 -57.281344 48.247664 0.000000 0.000000 0.000000 9.131678 -0.938645 1.129094 10.846338 -1.252440 16.688012 -4.161942 2.070956 -0.099774 -23.343520 6.044936 53.088670 86.061838 68.587872 -79.352837 0.000000 0.000000 0.000000 
-0.942833 84.331680 0.290859 0.000000 0.000000 0.000000 -18.140538 5.553893 -0.204812 -18.659681 -2.332345 13.029825 56.395086 2.590023 1.029126 -24.509089 -0.203637 -11.407410 -1.687898 -0.763178 -0.531469 0.000000 0.000000 0.000000 -17.714557 6.722355 -0.089104 -13.748133 -9.009707 -15.935274 52.545786 1.179782 -1.585341 -27.357448 -3.610191 11.477544 3.130575 -0.241912 -0.951275 0.000000 0.000000 0.000000 -18.161198 6.157159 -0.265864 18.528575 -1.643675 2.837988 8.581912 -1.012287 0.930528 0.741268 1.456506 0.708670 0.000000 0.000000 0.000000 7.663520 -1.099081 1.089867 -11.832233 0.310709 -2.850219 -18.328563 -0.486008 -0.799027 0.000000 0.000000 0.000000 9.201375 -1.441229 1.710694 1.081328 -10.752588 -7.306539 -5.546021 0.017526 -4.021980 -10.744576 -13.782665 -48.815492 53.983910 -54.609067 40.946171 0.000000 0.000000 0.000000 8.868435 -1.400044 1.082209 10.810268 -2.095181 18.412402 -4.412018 3.060898 0.592597 -23.430957 2.416842 44.533110 97.653018 72.214347 -89.325357 0.000000 0.000000 0.000000 
-0.786871 84.489487 0.292400 0.000000 0.000000 0.000000 -16.755859 8.042254 -0.228923 -19.777380 -4.272741 12.463774 56.256068 2.468549 1.275972 -24.449169 -0.806867 -10.999947 -1.187134 -0.713361 -0.538171 0.000000 0.000000 0.000000 -16.554724 9.611629 -0.018459 -13.325166 -10.425114 -16.019988 51.916944 0.833651 -1.362621 -27.601312 -4.500187 11.026784 3.696174 -0.323937 -0.627667 0.000000 0.000000 0.000000 -16.962128 8.458873 -0.117490 18.253476 -1.864159 2.731280 7.881462 -1.523696 0.880734 0.472599 0.940109 1.121848 0.000000 0.000000 0.000000 7.137635 -1.540161 1.259735 -10.218124 -0.400502 -2.060843 -17.866609 -0.034725 -2.140862 0.000000 0.000000 0.000000 8.482038 -1.795002 1.829025 0.861101 -12.425912 -8.099474 -4.361234 -0.444951 -3.738076 -10.246357 -13.558454 -44.971663 51.294055 -51.926216 33.953331 0.000000 0.000000 0.000000 8.203196 -2.025727 1.058623 10.570332 -3.398234 19.300197 -3.128868 3.723948 0.547005 -26.725980 -1.046895 36.371915 118.813449 75.344459 -109.418292 0.000000 0.000000 0.000000 
-0.567705 84.923256 0.317822 0.000000 0.000000 0.000000 -15.111102 10.838744 -0.263429 -20.966096 -6.454740 11.671479 55.627718 2.197355 1.400045 -24.065294 -1.473989 -10.913289 -0.623768 -0.637740 -0.553521 0.000000 0.000000 0.000000 -15.213370 12.457431 0.010828 -12.842402 -12.253741 -16.186242 50.989476 0.436704 -1.055532 -27.843806 -5.431846 10.575666 4.389815 -0.350367 -0.599304 0.000000 0.000000 0.000000 -15.593175 11.047848 -0.022226 17.985235 -2.190557 2.685844 7.074844 -2.144015 0.943995 0.225348 0.814753 0.635239 0.000000 0.000000 0.000000 6.604997 -2.132395 1.541886 -8.969993 -1.596876 -0.340592 -17.355980 -0.099888 -3.305872 0.000000 0.000000 0.000000 7.679666 -2.241095 1.942732 0.733716 -13.840775 -9.056669 -3.226386 -0.906744 -3.768531 -9.392814 -13.586248 -40.540868 49.901253 -50.380070 27.831166 0.000000 0.000000 0.000000 7.275338 -2.710360 1.085694 10.098170 -4.979365 18.437013 -1.078461 4.231661 0.193412 -34.288666 -2.702792 30.661945 145.229493 75.624770 -135.360306 0.000000 0.000000 0.000000 
-0.278335 85.624489 0.519314 0.000000 0.000000 0.000000 -13.395041 13.669654 -0.211870 -22.020608 -8.460505 10.646402 54.498329 2.026002 1.286365 -23.254947 -2.046377 -10.895279 -0.319838 -0.550031 -0.543364 0.000000 0.000000 0.000000 -13.745104 15.065799 0.104516 -12.407423 -14.403805 -16.554287 49.498063 0.093528 -0.713478 -27.865341 -6.196438 10.193316 5.051049 -0.309907 -0.840397 0.000000 0.000000 0.000000 -14.154403 13.595425 0.039658 17.751557 -2.500188 2.679130 6.308208 -2.698725 1.114729 0.465049 0.862007 -0.146251 0.000000 0.000000 0.000000 6.159837 -2.671624 1.858719 -8.297537 -3.187294 2.084865 -17.027855 -0.772337 -4.056334 0.000000 0.000000 0.000000 6.872533 -2.667932 2.066991 0.686687 -14.975048 -10.058812 -2.329885 -1.516424 -4.102633 -8.861694 -13.348470 -36.230479 48.657404 -49.968493 22.163001 0.000000 0.000000 0.000000 6.193977 -3.329065 1.174297 9.349877 -6.557687 15.720165 0.574028 4.447151 0.259591 -46.396929 -1.763393 27.962583 162.229642 73.882552 -152.305582 0.000000 0.000000 0.000000 
0.040029 86.600189 0.731983 0.000000 0.000000 0.000000 -11.757662 16.110849 0.083914 -22.667199 -9.977088 9.401623 52.803977 2.231374 0.929899 -22.069513 -2.371340 -10.654680 -0.284102 -0.459970 -0.543260 0.000000 0.000000 0.000000 -12.136036 17.184256 0.403862 -12.201905 -16.718879 -17.244549 47.266555 -0.138190 -0.381401 -27.311908 -6.604214 9.959959 5.422016 -0.221241 -1.206314 0.000000 0.000000 0.000000 -12.886607 16.000321 0.254550 17.572159 -2.649497 2.662855 5.659740 -2.965333 1.284544 0.783492 0.750624 -0.771065 0.000000 0.000000 0.000000 5.847301 -2.963854 2.092318 -8.356646 -5.117648 4.628376 -17.178049 -2.318619 -4.405645 0.000000 0.000000 0.000000 6.055765 -2.850845 2.146331 0.674110 -15.954142 -11.170296 -1.552819 -2.256059 -4.512451 -9.120485 -12.913461 -32.850795 46.707026 -49.939983 16.488811 0.000000 0.000000 0.000000 5.183811 -3.674162 1.251937 8.267482 -7.660727 11.304337 0.973646 5.302721 0.707943 -60.999286 1.416108 28.235167 166.758686 73.934810 -156.959796 0.000000 0.000000 0.000000 
0.334997 87.795593 0.879848 0.000000 0.000000 0.000000 -10.359155 17.992989 0.778747 -22.667994 -10.902065 8.007733 50.355617 2.816062 0.449445 -20.714545 -2.393503 -10.147086 -0.404024 -0.382807 -0.502291 0.000000 0.000000 0.000000 -10.629417 18.752037 1.031142 -12.310795 -19.051177 -18.321305 44.335420 -0.244585 -0.085375 -25.889561 -6.559986 9.928080 5.293505 -0.119966 -1.509935 0.000000 0.000000 0.000000 -11.877119 18.306857 0.786551 17.448869 -2.514394 2.588970 5.163845 -2.704238 1.335383 1.105374 0.029817 -0.657635 0.000000 0.000000 0.000000 5.595781 -2.779579 2.113368 -9.258105 -7.301035 6.585542 -17.740312 -4.627856 -4.638344 0.000000 0.000000 0.000000 5.278179 -2.578226 2.068467 0.587960 -16.873694 -12.509438 -0.435977 -2.918325 -4.150469 -10.721812 -12.745392 -30.862503 43.405617 -48.840501 10.287809 0.000000 0.000000 0.000000 4.490228 -3.477751 1.208450 7.092985 -7.381337 5.807064 -0.908334 6.410743 1.366072 -74.058771 5.998823 30.007685 153.891593 79.090353 -144.111104 0.000000 0.000000 0.000000 
0.570083 89.147308 0.941818 0.000000 0.000000 0.000000 -9.265368 19.418301 1.867407 -22.037672 -11.343765 6.535346 47.057691 3.518999 0.014470 -19.242226 -2.247441 -9.640329 -0.615436 -0.326074 -0.303343 0.000000 0.000000 0.000000 -9.347446 19.869859 1.970398 -12.752403 -21.345864 -19.769969 40.928864 -0.199248 0.157958 -23.630494 -6.068257 10.108653 4.755558 -0.048885 -1.626449 0.000000 0.000000 0.000000 -11.025577 20.546341 1.662372 17.363507 -1.987089 2.455252 4.917247 -1.715256 1.181434 1.252902 -0.646552 -0.241920 0.000000 0.000000 0.000000 5.334729 -1.947619 1.856608 -11.001831 -9.673129 7.447806 -18.409008 -7.450615 -5.042623 0.000000 0.000000 0.000000 4.683824 -1.716956 1.763801 0.370544 -17.904503 -13.985873 0.651756 -3.356848 -3.311077 -14.065299 -12.896621 -30.555316 38.778686 -45.147585 3.558394 0.000000 0.000000 0.000000 4.179294 -2.574003 0.987579 6.094522 -5.085035 0.299908 -3.702362 6.721085 1.532367 -81.668319 11.756976 30.287432 61.736755 80.770074 -51.801036 0.000000 0.000000 0.000000 
